HIERARCHY
ROOT pelvis
{
  OFFSET 0 100 0
  CHANNELS 6 Xposition Yposition Zposition Zrotation Xrotation Yrotation
  JOINT pelvis_right_femur
  {
    OFFSET -10.78128 -3.44521 -0.5502486
    CHANNELS 3 Zrotation Xrotation Yrotation
    JOINT right_femur_tibia
    {
      OFFSET -0.8047443 -44.0398 -0.1307829
      CHANNELS 3 Zrotation Xrotation Yrotation
      JOINT right_tibia_foot
      {
        OFFSET 3.006224 -47.83518 -5
        CHANNELS 3 Zrotation Xrotation Yrotation
        End Site
        {
          OFFSET 0 -5 15
        }
      }
    }
  }
  JOINT pelvis_left_femur
  {
    OFFSET 10.78128 -3.44521 -0.5502486
    CHANNELS 3 Zrotation Xrotation Yrotation
    JOINT left_femur_tibia
    {
      OFFSET 0.8047443 -44.0398 -0.1307829
      CHANNELS 3 Zrotation Xrotation Yrotation
      JOINT left_tibia_foot
      {
        OFFSET -4.370144 -48.10324 -4.275266
        CHANNELS 3 Zrotation Xrotation Yrotation
        End Site
        {
          OFFSET 0 -5 15
        }
      }
    }
  }
  JOINT pelvis_spine1
  {
    OFFSET 0 6.468898 -3.129235
    CHANNELS 3 Zrotation Xrotation Yrotation
    JOINT spine1
    {
      OFFSET 0 23.15396 4.99043
      CHANNELS 3 Zrotation Xrotation Yrotation
      JOINT spine2
      {
        OFFSET 0 20.79997 -5.064912
        CHANNELS 3 Zrotation Xrotation Yrotation
        JOINT neck
        {
          OFFSET 0 14.38658 9.616178
          CHANNELS 3 Zrotation Xrotation Yrotation
          End Site
          {
            OFFSET 0 20 0
          }
        }
      }
      JOINT right_manubrium
      {
        OFFSET -5.722621 16.35077 3.967754
        CHANNELS 3 Zrotation Xrotation Yrotation
        JOINT right_clavicle
        {
          OFFSET -13.16364 1.694482 -4.693211
          CHANNELS 3 Zrotation Xrotation Yrotation
          JOINT right_humerus
          {
            OFFSET -28.5034 -0.3100689 -2.792744
            CHANNELS 3 Zrotation Xrotation Yrotation
            JOINT right_radius
            {
              OFFSET -25.15693 0.02248979 -1.271978
              CHANNELS 3 Zrotation Xrotation Yrotation
              End Site
              {
                OFFSET -15 0 0
              }
            }
          }
        }
      }
      JOINT left_manubrium
      {
        OFFSET 5.722621 16.35077 3.967754
        CHANNELS 3 Zrotation Xrotation Yrotation
        JOINT left_clavicle
        {
          OFFSET 13.16364 1.694482 -4.693211
          CHANNELS 3 Zrotation Xrotation Yrotation
          JOINT left_humerus
          {
            OFFSET 29.39168 -1.063119 -2.237045
            CHANNELS 3 Zrotation Xrotation Yrotation
            JOINT left_radius
            {
              OFFSET 24.59957 -0.9528479 0.9047498
              CHANNELS 3 Zrotation Xrotation Yrotation
              End Site
              {
                OFFSET 15 -0 -0
              }
            }
          }
        }
      }
    }
  }
}
MOTION
Frames: 13
Frame Time: 0.0416666666667
-1122.211 93.85413 2081.169 -4.471709 0.2655223 -90.93642 4.347566 -25.35188 -4.857699 -0 6.329593 -0 -15.57466 8.674167 1.819997 -4.758191 14.27843 -9.504433 -0 22.35604 -0 4.894313 -18.21807 17.28607 -2.197941 0.3285481 3.381365 1.824006 9.6381 -5.985774 1.798447 21.86458 6.549775 2.680136 -20.05766 8.53948 4.778598 -14.41422 11.92264 83.99383 37.93606 -11.54189 -0 0 7.887144 -18.8964 16.3182 13.15481 5.207986 -19.44523 -1.638998 -84.99911 14.21046 10.9608 0 0 -16.89906 13.89074 12.7987 -4.107467
-1128.016 93.42167 2080.912 -3.852656 0.6869684 -91.26879 5.423703 -25.23695 -3.620798 -0 7.135876 -0 -14.8212 7.347157 0.9314189 -4.492068 14.33086 -9.370172 -0 26.32569 -0 4.476756 -16.51391 16.4046 -2.207135 0.2957375 3.455063 1.818809 9.659475 -5.961708 1.763501 21.82874 6.597218 2.728812 -20.16916 8.537278 4.824146 -14.55025 11.94843 83.83564 37.97771 -11.39595 -0 0 8.108548 -18.86838 16.22699 13.16316 5.219341 -19.4108 -1.607262 -85.16885 14.18792 11.27585 0 0 -16.68417 13.94895 12.75525 -4.166921
-1133.974 93.38856 2080.6 -3.588214 1.089345 -91.62761 6.446503 -23.95003 -2.471618 -0 8.792239 -0 -14.53137 5.977171 0.1683403 -4.155599 13.59209 -9.119063 -0 31.38459 -0 4.12948 -14.14413 15.52828 -2.22114 0.2563849 3.564632 1.809117 9.694975 -5.934116 1.711235 21.78292 6.6432 2.792519 -20.30362 8.500479 4.870958 -14.75093 11.98073 83.62856 37.95387 -11.20644 -0 0 8.431427 -18.8441 16.04139 13.18571 5.219585 -19.36558 -1.585567 -85.39747 14.20972 11.71559 0 0 -16.39589 13.9271 12.65249 -4.12364
-1139.971 93.79461 2080.243 -3.645036 1.445636 -92.0273 7.312841 -21.52987 -1.501358 -0 10.78913 -0 -14.65745 4.413957 -0.4170295 -3.731853 11.82481 -8.779765 -0 37.15832 -0 3.765435 -11.33747 14.73895 -2.239541 0.2162412 3.705926 1.789172 9.740936 -5.895917 1.647088 21.73684 6.678982 2.867573 -20.43414 8.424232 4.914374 -15.00542 12.0157 83.37026 37.85188 -10.9581 -0 0 8.850345 -18.84051 15.7687 13.22818 5.206115 -19.30316 -1.579189 -85.68111 14.28015 12.26465 0 0 -16.01638 13.81092 12.50315 -3.964986
-1145.854 94.58982 2079.856 -3.934381 1.721753 -92.48404 7.928019 -18.15674 -0.7627485 -0 12.51103 -0 -15.00669 2.47527 -0.8105757 -3.207162 8.853264 -8.373847 -0 42.88133 -0 3.261257 -8.4643 14.12887 -2.262846 0.1807289 3.881923 1.749544 9.795357 -5.833592 1.574892 21.70047 6.696455 2.953694 -20.53292 8.299811 4.951743 -15.31369 12.05086 83.03924 37.65562 -10.6096 -0 0 9.382159 -18.88428 15.4092 13.30394 5.175181 -19.20987 -1.592911 -86.03179 14.40082 12.93593 0 0 -15.49516 13.58389 12.31718 -3.676438
-1151.475 95.61703 2079.455 -4.375991 1.88479 -93.01264 8.24474 -14.13839 -0.2772857 -0 13.36453 -0 -15.32125 0.07981931 -1.03922 -2.577966 4.730574 -7.87821 -0 47.51115 -0 2.61113 -5.949822 13.82119 -2.2915 0.1544354 4.097889 1.679674 9.856937 -5.731037 1.49826 21.6831 6.689163 3.051753 -20.57385 8.120023 4.981684 -15.67936 12.0847 82.60889 37.3521 -10.11116 -0 0 10.05091 -19.00465 14.96603 13.42803 5.12373 -19.06962 -1.629627 -86.4679 14.5658 13.75272 0 0 -14.77066 13.23728 12.1054 -3.253198
-1156.751 96.64346 2079.058 -4.940786 1.924102 -93.62418 8.294608 -9.839264 -0.03926382 -0 13.0586 -0 -15.39825 -2.651432 -1.161186 -1.850834 -0.1586769 -7.227474 -0 50.03443 -0 2.044888 -4.111995 13.93512 -2.324952 0.1402737 4.356183 1.571401 9.92413 -5.57491 1.421525 21.69161 6.653768 3.161508 -20.53784 7.884872 5.00318 -16.10273 12.11621 82.06401 36.93808 -9.426845 -0 0 10.87085 -19.22335 14.45282 13.6099 5.051357 -18.87006 -1.688823 -87.00308 14.75905 14.72914 0 0 -13.79723 12.77926 11.88172 -2.709865
-1161.695 97.43628 2078.684 -5.605073 1.869912 -94.31903 8.169191 -5.573388 -0.01576713 -0 11.80416 -0 -15.18099 -5.457218 -1.23709 -1.036275 -5.221895 -6.380131 -0 49.80054 -0 1.923097 -3.019785 14.49493 -2.36125 0.1382517 4.652818 1.422629 9.994821 -5.360295 1.349324 21.72816 6.591806 3.280624 -20.42016 7.604928 5.015441 -16.57688 12.14489 81.41309 36.42485 -8.554347 -0 0 11.8342 -19.54383 13.89472 13.84701 4.961749 -18.60864 -1.765705 -87.63767 14.95629 15.85677 0 0 -12.56918 12.23909 11.66254 -2.083873
-1166.397 97.83231 2078.363 -6.258059 1.781607 -95.07788 7.947064 -1.523849 -0.1426555 -0 10.16802 -0 -14.74383 -8.140019 -1.303444 -0.1539419 -9.940183 -5.401381 -0 46.6625 -0 2.422068 -2.501525 15.37034 -2.397461 0.1447358 4.977094 1.239207 10.06672 -5.093927 1.285098 21.78894 6.510403 3.405454 -20.23445 7.299942 5.018872 -17.08807 12.171 80.68917 35.83927 -7.531887 -0 0 12.90888 -19.94614 13.32301 14.12271 4.862772 -18.29574 -1.852057 -88.35618 15.13071 17.10252 0 0 -11.12937 11.66354 11.46434 -1.430425
-1170.986 97.76083 2078.119 -6.709768 1.706682 -95.862 7.634949 2.258407 -0.3179262 -0 8.719685 -0 -14.18805 -10.68698 -1.383095 0.7443095 -13.99946 -4.477357 -0 40.93417 -0 3.34051 -2.300235 16.33078 -2.430626 0.153428 5.313521 1.033547 10.13794 -4.792783 1.230054 21.86538 6.420669 3.532516 -20.00792 6.993263 5.016226 -17.61753 12.19563 79.93904 35.22043 -6.427574 -0 0 14.04464 -20.39283 12.76872 14.41074 4.76494 -17.95303 -1.938899 -89.12977 15.25885 18.41409 0 0 -9.558122 11.10728 11.30187 -0.8120132
-1175.588 97.23066 2077.969 -6.822043 1.651183 -96.62495 7.176923 5.783872 -0.4056572 -0 7.864246 -0 -13.55613 -13.16826 -1.51622 1.55052 -17.18492 -3.849916 -0 33.33189 -0 4.239812 -2.225136 17.17694 -2.458656 0.1578622 5.644162 0.8208484 10.20687 -4.478921 1.183656 21.94779 6.334547 3.659372 -19.76991 6.705976 5.01271 -18.14218 12.22004 79.20892 34.61339 -5.319027 -0 0 15.18164 -20.84217 12.2599 14.68317 4.679282 -17.60787 -2.019235 -89.92043 15.32375 19.72658 0 0 -7.951176 10.62267 11.18809 -0.2884717
-1180.308 96.31423 2077.904 -6.621046 1.588449 -97.32711 6.512103 9.047543 -0.2835207 -0 7.905697 -0 -12.8538 -15.50669 -1.741081 2.107269 -19.28487 -3.72528 -0 24.93343 -0 4.739768 -2.194824 17.83843 -2.480817 0.1536949 5.950687 0.6153231 10.27149 -4.173835 1.144953 22.02868 6.262295 3.784725 -19.54219 6.454041 5.015028 -18.63535 12.24481 78.53466 34.06253 -4.275653 -0 0 16.25846 -21.2594 11.8209 14.91646 4.615824 -17.28687 -2.089086 -90.68594 15.31622 20.96901 0 0 -6.399442 10.25286 11.13434 0.08957707
-1185.22 95.14016 2077.9 -6.293573 1.489229 -97.94645 5.633534 12.00591 0.07031125 -0 9.094647 -0 -12.15132 -17.31215 -2.024484 2.263969 -20.1411 -4.19461 -0 17.03581 -0 4.712146 -2.202349 18.37616 -2.497726 0.139501 6.216347 0.4281343 10.32876 -3.894917 1.113452 22.10398 6.211665 3.908134 -19.33632 6.248371 5.030107 -19.06919 12.26935 77.93861 33.60644 -3.349871 -0 0 17.21901 -21.6209 11.47134 15.09381 4.582791 -17.01128 -2.146709 -91.38548 15.23551 22.07242 0 0 -4.977467 10.02853 11.14905 0.2848387
